<?xml version="1.0" encoding="utf-8"?>
<!-- Generator: Adobe Illustrator 24.3.0, SVG Export Plug-In . SVG Version: 6.00 Build 0)  -->
<svg version="1.1" id="Layer_1" xmlns="http://www.w3.org/2000/svg" xmlns:xlink="http://www.w3.org/1999/xlink" x="0px" y="0px"
	 viewBox="0 0 500 500" style="enable-background:new 0 0 500 500;" xml:space="preserve">
<style type="text/css">
	.st0{clip-path:url(#SVGID_1_);fill:url(#SVGID_2_);}
	.st1{clip-path:url(#SVGID_3_);fill:#FFFFFF;}
	.st2{clip-path:url(#SVGID_4_);fill:#FFFFFF;}
	.st3{clip-path:url(#SVGID_5_);fill:#FFFFFF;}
	.st4{clip-path:url(#SVGID_6_);fill-rule:evenodd;clip-rule:evenodd;fill:#FFFFFF;}
	.st5{clip-path:url(#SVGID_7_);fill-rule:evenodd;clip-rule:evenodd;fill:#FFFFFF;}
</style>
<g>
	<g>
		<defs>
			<path id="SVGID_14_" d="M230.2,271l2.6-0.9c0,0,13-4.8,31.8-7c18.3-1.7,40.9,0,58.3,7c20,6.5,22.2,15.7,17.4,21.8l-0.4,0.4
				c-4.4,6.1-17.4,10.9-17.4,10.9l-92.2,33.1v-24.4l68.3-24.4c7.4-2.6,8.7-6.5,2.6-8.7c-6.5-1.7-17.4-1.3-25.7,1.3l-45.2,16.1
				L230.2,271L230.2,271z M102.3,309.3c-20-5.7-23.5-17.4-14.4-24.8c8.7-6.1,23.5-10.9,23.5-10.9l60.9-21.8v24.8h-0.4l-43.5,15.2
				c-7.8,3-8.7,7-2.6,8.7c6.1,2.2,17.4,1.7,25.2-1.3l20.9-7.4v21.8l-4.4,0.9c-7.2,1.2-14.7,1.8-22.2,1.8
				C131.3,316.3,116.8,314.1,102.3,309.3 M180.2,325.8V138.7c17.8,3.5,44,11.3,58.3,16.1c35.7,12.6,47.9,27.9,47.9,62.2
				c0,33.5-20.9,46.1-47,33.5v-62.7c0-7.4-1.7-13.9-8.7-15.7c-4.8-1.7-8.3,3.1-8.3,10.4v156.6L180.2,325.8z M45.3,95.6
				C34,141.3,31.8,166.1,30.9,238.3c-0.9,71.8,1.3,100.1,10.9,150.1c9.6,50.9,23.9,80.1,44.4,89.6c2.6,0.9,15.7,1.3,28.7,1.3
				c20.9-0.9,27.8-2.2,57.4-12.2c44.9-16.3,88.3-36.5,129.7-60.5c98.3-57.9,168.8-122.7,168.8-156.6c0-57.4-192.8-191.4-323.3-224.1
				c-15.3-4-28.1-6.1-39.1-6.1C73.8,19.9,58.2,41.4,45.3,95.6"/>
		</defs>
		<clipPath id="SVGID_1_">
			<use xlink:href="#SVGID_14_"  style="overflow:visible;"/>
		</clipPath>
		
			<linearGradient id="SVGID_2_" gradientUnits="userSpaceOnUse" x1="16.9065" y1="-40.837" x2="17.9065" y2="-40.837" gradientTransform="matrix(318.4569 318.892 318.892 -318.4569 7691.9912 -18343.8613)">
			<stop  offset="0" style="stop-color:#11BEF1"/>
			<stop  offset="0.6" style="stop-color:#0185CB"/>
			<stop  offset="1" style="stop-color:#0185CB"/>
		</linearGradient>
		<polygon class="st0" points="-199.7,249.3 250.2,699.8 700.6,249.9 250.8,-200.5 		"/>
	</g>
</g>
<g>
	<g>
		<defs>
			<rect id="SVGID_17_" x="0.8" y="-0.4" width="500" height="500"/>
		</defs>
		<clipPath id="SVGID_3_">
			<use xlink:href="#SVGID_17_"  style="overflow:visible;"/>
		</clipPath>
		<path class="st1" d="M171.9,276.1l-43.5,15.2c-7.8,3-8.7,7-2.6,8.7c6.1,2.2,17.4,1.7,25.2-1.3l20.9-7.4v21.8l-4.4,0.9
			c-20.9,3.5-43.1,2.2-65.3-5.2c-20-5.7-23.5-17.4-14.4-24.8c8.7-6.1,23.5-10.9,23.5-10.9l60.9-21.8v24.8L171.9,276.1L171.9,276.1z"
			/>
	</g>
	<g>
		<defs>
			<rect id="SVGID_19_" x="0.8" y="-0.4" width="500" height="500"/>
		</defs>
		<clipPath id="SVGID_4_">
			<use xlink:href="#SVGID_19_"  style="overflow:visible;"/>
		</clipPath>
		<path class="st2" d="M222.4,182.1v156.6l-42.2-13.5V138.2c17.8,3.5,44,11.3,58.3,16.1c35.7,12.6,47.9,27.9,47.9,62.2
			c0,33.5-20.9,46.1-47,33.5v-62.6c0-7.4-1.7-13.9-8.7-15.7C225.9,169.9,222.4,174.7,222.4,182.1"/>
	</g>
	<g>
		<defs>
			<rect id="SVGID_21_" x="0.8" y="-0.4" width="500" height="500"/>
		</defs>
		<clipPath id="SVGID_5_">
			<use xlink:href="#SVGID_21_"  style="overflow:visible;"/>
		</clipPath>
		<path class="st3" d="M339.9,291.8c-4.4,6.1-17.4,10.9-17.4,10.9l-92.2,33.1v-24.4l68.3-24.4c7.4-2.6,8.7-6.5,2.6-8.7
			c-6.5-1.7-17.4-1.3-25.7,1.3l-45.2,16.1v-25.2l2.6-0.9c0,0,13-4.8,31.8-7c18.3-1.7,40.9,0,58.3,7c20,6.5,22.2,15.7,17.4,21.8
			L339.9,291.8z"/>
	</g>
	<g>
		<defs>
			<rect id="SVGID_23_" x="0.8" y="-0.4" width="500" height="500"/>
		</defs>
		<clipPath id="SVGID_6_">
			<use xlink:href="#SVGID_23_"  style="overflow:visible;"/>
		</clipPath>
		<polygon class="st4" points="288.7,348.5 283.6,333.5 283.6,348.5 281.2,348.5 281.2,330.1 284.5,330.1 289.9,345.8 295.3,330.1 
			298.6,330.1 298.6,348.5 296.2,348.5 296.2,333.5 291.1,348.5 		"/>
	</g>
	<g>
		<defs>
			<rect id="SVGID_25_" x="0.8" y="-0.4" width="500" height="500"/>
		</defs>
		<clipPath id="SVGID_7_">
			<use xlink:href="#SVGID_25_"  style="overflow:visible;"/>
		</clipPath>
		<polygon class="st5" points="270.3,332.2 264.2,332.2 264.2,330.1 278.8,330.1 278.8,332.2 272.7,332.2 272.7,348.5 270.3,348.5 
					"/>
	</g>
</g>
</svg>
